<?xml version="1.0" encoding="utf-8"?>
<!-- Generator: Adobe Illustrator 24.3.0, SVG Export Plug-In . SVG Version: 6.00 Build 0)  -->
<svg version="1.1" id="Capa_1" xmlns="http://www.w3.org/2000/svg" xmlns:xlink="http://www.w3.org/1999/xlink" x="0px" y="0px"
	 viewBox="0 0 296.9 296.9" xml:space="preserve">
<g>
   <path class="st0" d="M73.6,292c0,5.5,4,7.4,8.5,4.3l17.4-12c4.5-3.2,11.9-3.1,16.4,0.1l16.5,11.8c4.5,3.2,8.2,1.3,8.2-4.2v-72.6
		c-24-1.7-48-11-67-26.8C73.6,192.6,73.6,292,73.6,292z"/>
	<path class="st0" d="M155.6,292c0,5.5,4,7.4,8.5,4.3l17.4-12c4.5-3.2,11.9-3.1,16.4,0.1l16.5,11.8c4.5,3.2,8.2,1.3,8.2-4.2v-98.6
		c-19,15.6-42,24.6-67,26.1V292z"/>
	<path class="st0" d="M148.9,204.7c56.5,0,102.3-45.8,102.3-102.3S205.4,0,148.9,0C92.4,0,46.6,45.8,46.6,102.3
		S92.4,204.7,148.9,204.7z M148.9,20.7c45,0,81.6,36.6,81.6,81.6S193.9,184,148.9,184c-45,0-81.6-36.6-81.6-81.6
		S103.9,20.7,148.9,20.7z"/>
	<path class="st0" d="M148.9,169c36.7,0,66.6-29.9,66.6-66.6s-29.9-66.6-66.6-66.6c-36.7,0-66.6,29.9-66.6,66.6S112.2,169,148.9,169
		z"/>
  </g>
</svg>

