<?xml version="1.0" encoding="utf-8"?>
<!-- Generator: Adobe Illustrator 24.3.0, SVG Export Plug-In . SVG Version: 6.00 Build 0)  -->
<svg version="1.1" id="Capa_3" xmlns="http://www.w3.org/2000/svg" xmlns:xlink="http://www.w3.org/1999/xlink" x="0px" y="0px"
	 viewBox="0 0 296.9 296.9" xml:space="preserve">
<g>
	<path class="st0" d="M65.5,185.3c-0.2-0.2-0.4-0.4-0.5-0.6l-23.8,83.1c-1.5,5.3,1.7,8.7,7,7.5l29.5-6.2c0.4-0.1,0.8-0.1,1.2-0.2
		l17.4-61.5C85,201.9,74.6,194.5,65.5,185.3z"/>
	<path class="st0" d="M93.3,273c0.5,0.3,0.9,0.7,1.3,1.1l21,20.5c3.9,3.8,8.4,2.7,9.9-2.6l20.7-72.4c-12.4-0.2-24.5-2.4-36-6.3
		L93.3,273z"/>
	<path class="st0" d="M150.7,219.6l20.7,72.4c1.5,5.3,6,6.5,9.9,2.6l21-20.5c0.4-0.3,0.7-0.7,1.1-1l-16.8-59.8
		C175.2,217.3,163.1,219.4,150.7,219.6z"/>
	<path class="st0" d="M232,184.7c-0.2,0.2-0.4,0.4-0.5,0.6c-9.2,9.2-19.6,16.6-30.8,22.2l17.3,61.5c0.5,0,0.9,0.1,1.4,0.2l29.5,6.2
		c5.4,1.1,8.5-2.3,7-7.5L232,184.7z"/>
	<path class="st0" d="M250.8,102.3C250.8,45.8,205,0,148.5,0C91.9,0,46.1,45.8,46.1,102.3s45.8,102.3,102.3,102.3
		C205,204.7,250.8,158.9,250.8,102.3z M148.5,184c-45,0-81.6-36.6-81.6-81.6s36.6-81.6,81.6-81.6c45,0,81.6,36.6,81.6,81.6
		S193.5,184,148.5,184z"/>
	<path class="st0" d="M148.5,169c36.7,0,66.6-29.9,66.6-66.6s-29.9-66.6-66.6-66.6c-36.7,0-66.6,29.9-66.6,66.6
		C81.8,139.1,111.7,169,148.5,169z"/>
</g>
</svg>
