<?xml version="1.0" encoding="utf-8"?>
<!-- Generator: Adobe Illustrator 24.3.0, SVG Export Plug-In . SVG Version: 6.00 Build 0)  -->
<svg version="1.1" id="Capa_2" xmlns="http://www.w3.org/2000/svg" xmlns:xlink="http://www.w3.org/1999/xlink" x="0px" y="0px"
	 viewBox="0 0 295.9 295.9" xml:space="preserve">
<g>
	<path class="st0" d="M147.6,219.7c-11,0-21-1.5-32-4.4v71.3l23.4-8.1c5.2-1.8,13.6-1.8,18.8,0.1l23.7,8.5v-72.3
		C170.6,218,159.3,219.7,147.6,219.7z"/>
	<path class="st0" d="M80.6,198.7v90c0,5.5,4.5,8.5,9.7,6.7l10.3-3.6v-81.9C93.6,206.8,87.6,203.1,80.6,198.7z"/>
	<path class="st0" d="M196.6,292.3l8.4,3c5.2,1.8,9.6-1.1,9.6-6.6v-90c-5,4-11,7.4-18,10.3V292.3z"/>
	<path class="st0" d="M147.9,204.7c56.5,0,102.3-45.8,102.3-102.3S204.5,0,147.9,0C91.4,0,45.6,45.8,45.6,102.3
		S91.4,204.7,147.9,204.7z M147.9,20.7c45,0,81.6,36.6,81.6,81.6S193,184,147.9,184c-45,0-81.6-36.6-81.6-81.6
		S102.9,20.7,147.9,20.7z"/>
	<path class="st0" d="M147.9,169c36.7,0,66.6-29.9,66.6-66.6s-29.9-66.6-66.6-66.6s-66.6,29.9-66.6,66.6S111.2,169,147.9,169z
		 M110.5,92.3c0.9-2.7,3.2-4.7,6.1-5.1l16.8-2.5l7.5-15.2c1.3-2.6,3.9-4.2,6.7-4.2s5.5,1.6,6.7,4.2l7.5,15.2l16.8,2.5
		c2.8,0.4,5.2,2.4,6.1,5.1c0.9,2.7,0.1,5.7-1.9,7.7l-12.2,11.9l2.9,16.8c0.5,2.8-0.7,5.7-3,7.3c-1.3,0.9-2.9,1.4-4.4,1.4
		c-1.2,0-2.4-0.3-3.5-0.9l-15.1-7.9l-15.1,7.9c-2.5,1.3-5.6,1.1-7.9-0.6c-2.3-1.7-3.5-4.5-3-7.3l2.9-16.8l-12-11.8
		C110.3,98,109.6,95,110.5,92.3z"/>
</g>
</svg>
