<?xml version="1.0" encoding="utf-8"?>
<!-- Generator: Adobe Illustrator 24.3.0, SVG Export Plug-In . SVG Version: 6.00 Build 0)  -->
<svg version="1.1" id="Capa_4" xmlns="http://www.w3.org/2000/svg" xmlns:xlink="http://www.w3.org/1999/xlink" x="0px" y="0px"
	 viewBox="0 0 296.6 296.6" xml:space="preserve">
<g>
	<path class="st0" d="M158.2,217.4c-3.7-1.1-7.6-2.2-10.1-2.2c-2.5,0-6.3,1.1-10.1,2.2c-5.3,1.6-11.4,3.3-17.9,3.3
		c-3.3,0-6.5-0.5-9.5-1.4l0,71.2c0,5.5,3.8,7.6,8.5,4.7l20.9-12.9c4.7-2.9,12.3-2.9,17,0.1l20.2,12.8c4.6,2.9,8.5,0.8,8.5-4.7
		l0-71.2c-3,0.9-6.2,1.4-9.5,1.4C169.6,220.8,163.5,219,158.2,217.4z"/>
	<path class="st0" d="M285.9,222.2l-38.7-47.4c0,0,0,0.1-0.1,0.1c-6.4,8.8-16.1,12.3-23.9,15c-3.5,1.3-7.2,2.6-9.1,3.9
		c-1.8,1.3-4.1,4.3-6.4,7.3c-5,6.5-11.1,14.5-21.3,18l41.3,50.6c3.5,4.3,7.8,3.5,9.6-1.7l8-23.2c1.8-5.2,7.7-10,13.2-10.7l23.7-2.9
		C287.7,230.4,289.4,226.4,285.9,222.2z"/>
	<path class="st0" d="M88.4,201c-2.3-2.9-4.6-6-6.4-7.3c-1.8-1.3-5.5-2.6-9.1-3.9c-7.7-2.8-17.3-6.2-23.8-14.9l-38.6,47.2
		c-3.5,4.3-1.9,8.3,3.6,9L38,234c5.5,0.7,11.4,5.5,13.2,10.7l8,23.2c1.8,5.2,6.1,6,9.6,1.7l41.2-50.5
		C99.7,215.7,93.4,207.6,88.4,201z"/>
	<path class="st0" d="M205.3,181.6c8.7-6.3,23.3-7,29.6-15.7c6.3-8.6,2.4-22.7,5.8-33c3.2-10,14.7-19,14.7-30.1
		c0-11-11.5-20.1-14.7-30.1c-3.4-10.3,0.5-24.4-5.8-33c-6.3-8.7-20.9-9.3-29.6-15.7c-8.6-6.3-13.7-20-24-23.4
		c-1.7-0.5-3.4-0.8-5.2-0.8c-8.8,0-18.8,5.5-28,5.5c-9.2,0-19.2-5.5-28-5.5c-1.8,0-3.5,0.2-5.2,0.8c-10.3,3.4-15.4,17.1-24,23.4
		c-8.7,6.3-23.3,7-29.6,15.7c-6.3,8.6-2.4,22.7-5.8,33c-3.2,10-14.7,19-14.7,30.1S52.3,123,55.5,133c3.4,10.3-0.5,24.4,5.8,33
		c6.3,8.7,20.9,9.3,29.6,15.7c8.6,6.3,13.7,20,24,23.4c1.7,0.5,3.4,0.8,5.2,0.8c8.8,0,18.8-5.5,28-5.5c9.2,0,19.2,5.5,28,5.5
		c1.8,0,3.5-0.2,5.2-0.8C191.6,201.6,196.7,187.9,205.3,181.6z M213.9,73.6c3.9-1.3,8.2,0.9,9.5,4.8c1.3,3.9-0.9,8.2-4.8,9.5
		c-0.8,0.2-1.6,0.4-2.3,0.4c-3.2,0-6.1-2-7.1-5.2C207.8,79.1,210,74.9,213.9,73.6z M196.3,49.4c3.1-2.8,7.8-2.5,10.6,0.5
		c2.8,3.1,2.5,7.8-0.5,10.6c-1.4,1.3-3.2,1.9-5,1.9c-2.1,0-4.1-0.8-5.6-2.5C193,56.9,193.2,52.1,196.3,49.4z M163.1,129.9
		c4.1,0,7.5,3.4,7.5,7.5s-3.4,7.5-7.5,7.5h-31c-4.1,0-7.5-3.4-7.5-7.5s3.4-7.5,7.5-7.5h8.7v-27.6c-13-3.2-23.5-15.4-23.5-29.9
		c0-4.1,3.5-7.5,7.7-7.5h46.3c4.1,0,7.3,3.4,7.3,7.5c0,14.1-9.8,26.1-22.8,29.6v27.9H163.1z M170.4,34.4c1.7-3.8,6.1-5.5,9.9-3.8
		c3.8,1.7,5.5,6.1,3.8,9.9c-1.2,2.8-4,4.4-6.9,4.4c-1,0-2.1-0.2-3.1-0.7C170.4,42.6,168.7,38.1,170.4,34.4z M147.9,23.9
		c0,0,0.1,0,0.1,0c0,0,0.1,0,0.1,0c4.1,0,7.5,3.4,7.5,7.5c0,4.1-3.4,7.5-7.5,7.5c0,0-0.1,0-0.1,0c0,0,0,0-0.1,0c0,0,0,0,0,0
		c-4.1,0-7.5-3.3-7.5-7.5C140.4,27.2,143.8,23.9,147.9,23.9z M115.8,30.6c3.8-1.7,8.2,0,9.8,3.8c1.7,3.8,0.2,8.2-3.8,9.9v0
		c-1,0.4-2,0.7-3,0.7c-2.9,0-5.6-1.6-6.9-4.4C110.2,36.8,112,32.3,115.8,30.6z M89.2,50c2.8-3.1,7.5-3.3,10.6-0.6
		c3.1,2.8,3.3,7.5,0.6,10.6c-1.5,1.7-3.5,2.5-5.6,2.5c-1.8,0-3.6-0.6-5-1.9C86.7,57.9,86.5,53.1,89.2,50z M72.8,78.5
		c1.3-3.9,5.5-6.1,9.4-4.8c3.9,1.3,6.1,5.5,4.8,9.4c-1,3.2-4,5.2-7.1,5.2c-0.8,0-1.6-0.1-2.3-0.4C73.7,86.7,71.5,82.5,72.8,78.5z
		 M147.9,182c-41.4,0-76.1-32.3-78.9-73.6c-0.3-4.1,2.8-7.7,7-8c4.1-0.3,7.7,2.8,8,7c0,0.2,0,0.3,0,0.5
		c2.6,33.2,30.5,59.1,63.9,59.1c33.4,0,61.3-25.9,63.9-59.2c0-0.2,0-0.3,0-0.5c0.3-4.1,3.9-7.2,8-7c4.1,0.3,7.2,3.9,7,8
		C224,149.7,189.3,182,147.9,182z"/>
</g>
</svg>
