<svg xmlns="http://www.w3.org/2000/svg" viewBox="0 0 502 374"><defs><style>.cls-1{fill:#828282;}</style></defs><g id="Layer_2" data-name="Layer 2"><g id="Capa_1" data-name="Capa 1"><path class="cls-1" d="M43,374A43,43,0,0,1,0,331V43A43,43,0,0,1,43,0H459a43,43,0,0,1,43,43V331a43,43,0,0,1-43,43ZM22,331a21,21,0,0,0,21,21H459a21,21,0,0,0,21-21V51.1L258.21,243.32a11,11,0,0,1-14.42,0L22,51.1ZM43,22a20.93,20.93,0,0,0-8,1.62l-7.46,3.11L251,220.44,474.51,26.73l-7.46-3.11A20.93,20.93,0,0,0,459,22Z"/></g></g></svg>