<svg xmlns="http://www.w3.org/2000/svg" viewBox="0 0 374 439"><defs><style>.cls-1{fill:#828282;}</style></defs><g id="Layer_2" data-name="Layer 2"><g id="Layer_1-2" data-name="Layer 1"><path class="cls-1" d="M43,439c-23.71,0-43-16.27-43-36.28V211.28C0,191.27,19.29,175,43,175H331c23.71,0,43,16.27,43,36.28V402.72c0,20-19.29,36.28-43,36.28Zm0-246.15c-11.58,0-21,8.27-21,18.43V402.72c0,10.16,9.42,18.43,21,18.43H331c11.58,0,21-8.27,21-18.43V211.28c0-10.16-9.42-18.43-21-18.43Z"/><path class="cls-1" d="M299,188c-6.07,0-11-4.24-11-9.45V108.09c0-49.18-45.31-89.19-101-89.19s-101,40-101,89.19v70.46c0,5.21-4.93,9.45-11,9.45s-11-4.24-11-9.45V108.09C64,48.49,119.18,0,187,0S310,48.49,310,108.09v70.46C310,183.76,305.07,188,299,188Z"/></g></g></svg>