<?xml version="1.0" encoding="utf-8"?>
<!-- Generator: Adobe Illustrator 24.3.0, SVG Export Plug-In . SVG Version: 6.00 Build 0)  -->
<svg version="1.1" id="Capa_1" xmlns="http://www.w3.org/2000/svg" xmlns:xlink="http://www.w3.org/1999/xlink" x="0px" y="0px"
	 viewBox="0 0 420 420" style="enable-background:new 0 0 420 420;" xml:space="preserve">
<g>
	<g id="Layer_1_8_">
		<g>
			<path class="st0" d="M291.2,376.5c-4.2-2.7-9.8-1.4-12.5,2.8c-5.8,9.1-25.2,4.1-37.7,0.7c-0.3-0.1-180.9-50.4-180.9-50.4
				c-4.8-1.3-9.8,1.5-11.1,6.3c-1.3,4.8,1.5,9.8,6.3,11.1l32.2,9c-1.7,1.9-2.9,4.2-3.7,6.9c-2.7,9.6,2.9,19.6,12.6,22.3
				c9.6,2.7,19.6-2.9,22.3-12.6c0.7-2.6,0.8-5.3,0.4-7.8l91.2,25.4c-1.7,1.9-2.9,4.2-3.7,6.9c-2.7,9.6,2.9,19.6,12.6,22.3
				c9.6,2.7,19.6-2.9,22.3-12.6c0.7-2.5,0.8-5,0.5-7.5c0.1,0,0.1,0,0.2,0c13.3,3.7,40,8.2,51.9-10.3
				C296.6,384.8,295.4,379.2,291.2,376.5z"/>
			<path class="st0" d="M194.2,80.7c4.9,3.3,10.4,5.6,16.2,6.7l0.1,0c14.3,2.8,29.3-1.8,39.6-12.1c10.4-10.4,15-25.8,12-40.3
				c-3-14.1-12.9-26.1-26.2-31.6c-13.6-5.7-29.4-4.1-41.6,4.1c-12.2,8.2-19.6,22.3-19.5,37C174.8,58.9,182.3,72.7,194.2,80.7z"/>
			<path class="st0" d="M388.3,74.8c-0.9-9.9-9.6-17.1-19.5-16.2L289,66c-4.5,0.5-18,5.7-29.7,9.8c-1.7,2.5-3.6,4.9-5.8,7
				c-11.1,11.1-27.4,16.1-42.8,13.1l-0.1,0c-6.2-1.2-12.2-3.7-17.5-7.2c-2.8-1.9-5.3-4-7.5-6.4c-26.4-2.3-57-4.8-77.2-1.5l-67,22.7
				c-6.8,2.3-11,9.4-9.5,16.6c1.7,7.8,9.3,12.7,17.1,11.1l65-13.8l50,6.7c0,0-19.6,73.4-19.6,73.4c-8.5,34.6,21.4,59.8,21.4,59.8
				L128.7,316c-5,7.9-3.1,18.4,4.6,24c8,5.9,19.2,4.1,25.1-3.9l50.1-68.3c2.8-3.8,4.1-8.5,3.8-13.1l25.5,4.8l-44.9,70.1
				c-5.1,8-3.1,18.7,4.7,24.3c8.1,5.8,19.3,3.9,25-4.2l66.7-93.3c1.5-2.1,2.7-4.6,3.3-7.3c2.6-11-4.3-22-15.3-24.6l-1-0.2l-42.8-10
				l20.2-75.5c0.9-3.6,1.4-7.1,1.5-10.6c0.5-0.2,1-0.5,1.4-0.7l41-22.5L373,94.2C382.4,92.8,389.2,84.3,388.3,74.8z"/>
		</g>
	</g>
</g>
</svg>
