<?xml version="1.0" encoding="utf-8"?>
<!-- Generator: Adobe Illustrator 24.3.0, SVG Export Plug-In . SVG Version: 6.00 Build 0)  -->
<svg version="1.1" id="Layer_1" xmlns="http://www.w3.org/2000/svg" xmlns:xlink="http://www.w3.org/1999/xlink" x="0px" y="0px"
	 viewBox="0 0 180.8 87.5" style="enable-background:new 0 0 180.8 87.5;" xml:space="preserve">
<g id="Layer_2_1_">
	<g id="Capa_1">
		<path class="st0" d="M103.7,85.9c0.3-0.2,0.5-0.5,0.8-0.8c2.4-2.8,2.1-7.1-0.8-9.5l-1-0.9c40.5-2.2,78.1-14.9,78.1-37.2
			c0-11.1-9.6-20.7-27.7-27.7C136.5,3.5,114.3,0,90.4,0S44.3,3.5,27.7,9.8C9.6,16.8,0,26.4,0,37.5c0,0,0,0.1,0,0.1
			c0.1,3.7,3.1,6.6,6.8,6.6c0.1,0,0.1,0,0.2,0c3.7,0,6.7-3,6.6-6.7c0-9.8,29.9-24.1,76.8-24.1s76.8,14.3,76.8,24.1
			c0,8.8-24.4,21.3-63.7,23.7l0.1-0.1c0.3-0.3,0.6-0.6,0.9-0.9c2.4-2.9,2-7.1-0.9-9.4c-1.2-1-2.8-1.6-4.4-1.6
			c-1.6,0-3.2,0.6-4.4,1.6L74.1,68.3l20.8,17.5c1.2,1.1,2.8,1.7,4.4,1.7C100.9,87.5,102.5,86.9,103.7,85.9z"/>
	</g>
</g>
</svg>
