<?xml version="1.0" encoding="utf-8"?>
<!-- Generator: Adobe Illustrator 24.3.0, SVG Export Plug-In . SVG Version: 6.00 Build 0)  -->
<svg version="1.1" id="Layer_1" xmlns="http://www.w3.org/2000/svg" xmlns:xlink="http://www.w3.org/1999/xlink" x="0px" y="0px"
	 viewBox="0 0 512 512" style="enable-background:new 0 0 512 512;" xml:space="preserve">
<path class="st0" d="M512,302.9c0,56.2-17.9,109.5-51.7,154.2c-6.7,8.8-19.2,10.5-28,3.9c-8.8-6.7-10.5-19.2-3.9-28
	c28.5-37.7,43.6-82.7,43.6-130.1C472,183.5,375.3,87,256,87C136.6,87,40,183.6,40,302.9c0,47.4,15.1,92.4,43.6,130.1
	c6.7,8.8,4.9,21.4-3.9,28c-8.8,6.7-21.4,4.9-28-3.9C17.9,412.4,0,359,0,302.9C0,161.4,114.6,47,256,47C397.5,47,512,161.5,512,302.9
	z M382.7,182.4c7.8,7.8,7.8,20.5,0,28.3l-65.2,65.2c5.4,9.9,8.4,21.2,8.4,33.2c0,38.6-31.4,70-70,70c-38.6,0-70-31.4-70-70
	c0-38.6,31.4-70,70-70c12,0,23.4,3.1,33.2,8.4l65.2-65.2C362.2,174.6,374.9,174.6,382.7,182.4z M286,309.2c0-16.5-13.4-30-30-30
	s-30,13.4-30,30s13.4,30,30,30S286,325.7,286,309.2z"/>
</svg>
