<?xml version="1.0" encoding="iso-8859-1"?>
<!-- Generator: Adobe Illustrator 19.0.0, SVG Export Plug-In . SVG Version: 6.00 Build 0)  -->
<svg version="1.1" id="Capa_1" xmlns="http://www.w3.org/2000/svg" xmlns:xlink="http://www.w3.org/1999/xlink" x="0px" y="0px"
	 viewBox="0 0 512 512" style="enable-background:new 0 0 512 512;" xml:space="preserve">
<g>
	<g>
		<path d="M256,79.324c-50.181,0-91.006,40.825-91.006,91.006s40.825,91.006,91.006,91.006s91.006-40.825,91.006-91.006
			S306.18,79.324,256,79.324z"/>
	</g>
</g>
<g>
	<g>
		<path d="M374.902,331.575c-12.637,9.34-26.317,17.151-40.917,23.327c-24.716,10.454-50.955,15.755-77.985,15.755
			c-27.031,0-53.269-5.3-77.985-15.755c-14.599-6.175-28.28-13.987-40.918-23.326l-59.994,127.48l68.286,0.894L189.602,512
			l66.397-141.09L322.397,512l44.213-52.05l68.287-0.894L374.902,331.575z"/>
	</g>
</g>
<g>
	<g>
		<path d="M256.001,0c-94.07,0-170.33,76.259-170.33,170.33s76.259,170.33,170.33,170.33c94.07,0.001,170.33-76.259,170.33-170.33
			S350.071,0,256.001,0z M256,291.332c-66.721,0-121.002-54.281-121.002-121.003S189.279,49.327,256.001,49.327
			s121.002,54.283,121.002,121.003C377.002,237.051,322.721,291.332,256,291.332z"/>
	</g>
</g>
<g>
</g>
<g>
</g>
<g>
</g>
<g>
</g>
<g>
</g>
<g>
</g>
<g>
</g>
<g>
</g>
<g>
</g>
<g>
</g>
<g>
</g>
<g>
</g>
<g>
</g>
<g>
</g>
<g>
</g>
</svg>
